<svg width="166" height="59" viewBox="0 0 166 59" fill="none" xmlns="http://www.w3.org/2000/svg">
<path d="M25.5833 40.673C22.5904 38.1004 20.1292 37.0656 19.7843 36.9291C19.5148 36.7997 17.8369 36.0309 15.1242 35.4955C14.9015 34.8272 14.6751 34.0403 14.4811 33.1421C13.9206 30.5444 13.5254 26.4844 14.7362 21.6626C19.5292 22.9704 22.8527 25.313 24.8288 27.0844C25.1558 27.379 25.4576 27.6664 25.7342 27.9431C24.7821 31.1085 24.7246 33.3469 24.721 33.6811C24.6923 34.0547 24.5378 36.7818 25.5833 40.673Z" fill="#AF1E2E"/>
<path d="M54.4929 33.1421C54.3025 34.026 54.0797 34.8021 53.8642 35.456C51.0401 35.9949 49.2939 36.7962 49.0137 36.9291C48.6652 37.0656 46.1753 38.1148 43.1644 40.7197C44.2494 36.7818 44.1093 34.0296 44.0877 33.6811C44.0806 33.3792 44.0123 31.2055 43.0781 28.1084C43.3979 27.7814 43.7536 27.4365 44.1452 27.0844C46.1214 25.313 49.4448 22.9704 54.2378 21.6626C55.4451 26.4844 55.0534 30.5444 54.4929 33.1421Z" fill="#AF1E2E"/>
<path d="M40.8985 42.8999C39.9356 43.9347 38.9619 45.124 38.0205 46.4893C37.8229 46.7767 37.6253 47.0749 37.4277 47.3803C37.2373 47.6786 37.0469 47.984 36.86 48.3001C35.9762 49.7768 35.1426 51.426 34.4024 53.2692C33.6982 51.5158 32.9114 49.9385 32.0742 48.5193C31.8874 48.1995 31.7005 47.8905 31.5137 47.5923C31.3161 47.2833 31.1221 46.9851 30.9209 46.6941C29.9041 45.1886 28.8441 43.8988 27.8022 42.7921C25.8907 37.6219 26.153 33.8313 26.1566 33.7702V33.7091C26.1602 33.6912 26.1746 31.8839 26.8932 29.1964C26.9614 28.9269 27.0405 28.6538 27.1267 28.37C27.1662 28.2227 27.2129 28.079 27.2596 27.9316C27.2992 27.8131 27.3387 27.6909 27.3818 27.5652C28.3806 24.5902 30.3855 20.3864 34.3593 16.3623C38.2685 20.3253 40.338 24.4896 41.4303 27.7484C41.5201 28.0251 41.6063 28.2981 41.6854 28.5604C41.7716 28.8478 41.8506 29.1281 41.9225 29.3976C42.6123 31.9737 42.6519 33.6768 42.6519 33.7163V33.7594C42.6519 33.8205 42.889 37.6722 40.8985 42.8999Z" fill="#AF1E2E"/>
<path d="M62.6711 55.2681V57.8622H6.44141V55.2681H13.3363C15.4094 56.0765 18.9629 57.1005 23.6265 57.1005C26.7308 57.1005 30.3274 56.6478 34.312 55.3723C34.3371 55.3651 34.3658 55.3543 34.391 55.3471H34.4018H34.4126C34.4126 55.3471 34.4197 55.3507 34.4233 55.3507C38.4367 56.6406 42.0548 57.1005 45.177 57.1005C49.8371 57.1005 53.3905 56.0765 55.4637 55.2681H62.6711Z" fill="#AF1E2E"/>
<path d="M68.8002 37.9962C64.9845 48.8541 56.9219 53.0183 56.8393 53.0579L56.7998 53.0794C56.7782 53.0938 56.2033 53.4172 55.1542 53.8304C54.5829 54.0531 53.8679 54.3046 53.0271 54.549C52.0966 54.8148 51.0079 55.0735 49.7791 55.2675C47.1922 55.6807 43.9765 55.8316 40.2865 55.2675C39.1691 55.0987 38.0122 54.8651 36.8121 54.549C36.4026 54.4448 35.993 54.3298 35.5762 54.204C35.5941 54.1609 35.6121 54.1142 35.6301 54.0711C35.6588 53.9884 35.6911 53.9094 35.7235 53.8304C36.0109 53.1225 36.3091 52.4435 36.6217 51.7931C36.6217 51.7931 36.6229 51.7931 36.6253 51.7931C36.8517 51.3153 37.0888 50.8518 37.3295 50.4063C37.4984 50.0901 37.6709 49.7811 37.8469 49.4793C38.023 49.1739 38.2026 48.8793 38.3859 48.5882C39.0973 47.4493 39.8374 46.4253 40.5883 45.5019C41.1165 44.848 41.6447 44.2515 42.1728 43.7018C45.9814 39.71 49.5061 38.2836 49.5635 38.2621L49.6174 38.2369C49.6354 38.2297 50.9684 37.5902 53.2499 37.0728C53.523 37.0117 53.8068 36.9506 54.105 36.8931C54.3709 36.8428 54.6512 36.7925 54.9386 36.7458C55.0572 36.7279 55.1757 36.7099 55.2943 36.6919C58.3986 36.2428 63.2168 36.1206 68.8002 37.9998V37.9962Z" fill="#AF1E2E"/>
<path d="M33.2276 54.2038C33.2276 54.2038 33.2169 54.2073 33.2097 54.2073C32.8001 54.3331 32.3941 54.4445 31.9917 54.5487C30.7916 54.8649 29.6347 55.0984 28.5173 55.2673C24.8273 55.8314 21.6116 55.6805 19.0247 55.2673C17.7959 55.0733 16.7072 54.8146 15.7767 54.5487C14.9359 54.3044 14.2209 54.0529 13.6496 53.8301C12.6005 53.4169 12.0256 53.0935 12.0041 53.0792L11.9645 53.0576C11.943 53.0468 9.81954 51.9653 7.26855 49.4934C5.00858 47.3053 1.95816 43.5578 0 37.9959C5.66968 36.088 10.6064 36.2174 14.0556 36.7851C14.3467 36.8354 14.6269 36.8857 14.8928 36.9396C15.1946 37.0007 15.482 37.0617 15.7551 37.1264C17.9037 37.6294 19.154 38.2187 19.1864 38.233L19.2403 38.2582C19.2618 38.2654 21.6547 39.2211 24.5974 41.7398C25.1974 42.2536 25.8477 42.8608 26.5232 43.565C27.019 44.0824 27.5292 44.6501 28.043 45.2752C28.0466 45.2752 28.0502 45.2824 28.0502 45.286C28.8658 46.2777 29.6922 47.4095 30.4826 48.6922C30.594 48.8646 30.7018 49.0443 30.806 49.2239C30.8814 49.3497 30.9569 49.479 31.0288 49.6084C31.1976 49.8958 31.3593 50.1904 31.521 50.4922C31.7905 50.9917 32.0527 51.5126 32.3042 52.0552H32.3078C32.5737 52.6265 32.8324 53.2157 33.0767 53.8301C33.1306 53.9523 33.1773 54.078 33.2276 54.2038Z" fill="#AF1E2E"/>
<path d="M34.4051 8.89617C36.8617 8.89617 38.8532 6.9047 38.8532 4.44809C38.8532 1.99148 36.8617 0 34.4051 0C31.9485 0 29.957 1.99148 29.957 4.44809C29.957 6.9047 31.9485 8.89617 34.4051 8.89617Z" fill="#AF1E2E"/>
<path d="M50.5225 13.9127C52.4334 13.9127 53.9825 12.3636 53.9825 10.4527C53.9825 8.54178 52.4334 6.99268 50.5225 6.99268C48.6116 6.99268 47.0625 8.54178 47.0625 10.4527C47.0625 12.3636 48.6116 13.9127 50.5225 13.9127Z" fill="#AF1E2E"/>
<path d="M60.9251 21.6046C62.2903 21.6046 63.397 20.4978 63.397 19.1326C63.397 17.7674 62.2903 16.6606 60.9251 16.6606C59.5599 16.6606 58.4531 17.7674 58.4531 19.1326C58.4531 20.4978 59.5599 21.6046 60.9251 21.6046Z" fill="#AF1E2E"/>
<path d="M18.2862 13.9127C20.1971 13.9127 21.7462 12.3636 21.7462 10.4527C21.7462 8.54178 20.1971 6.99268 18.2862 6.99268C16.3753 6.99268 14.8262 8.54178 14.8262 10.4527C14.8262 12.3636 16.3753 13.9127 18.2862 13.9127Z" fill="#AF1E2E"/>
<path d="M8.19851 21.6046C9.56374 21.6046 10.6705 20.4978 10.6705 19.1326C10.6705 17.7674 9.56374 16.6606 8.19851 16.6606C6.83329 16.6606 5.72656 17.7674 5.72656 19.1326C5.72656 20.4978 6.83329 21.6046 8.19851 21.6046Z" fill="#AF1E2E"/>
<path d="M77.064 19.76C76.952 14.44 81.488 10.1 86.948 10.184C90.196 10.184 92.94 11.64 94.732 14.188L92.044 16.4C90.728 14.58 89.02 13.684 86.892 13.684C83.364 13.684 80.956 16.232 80.956 19.76C80.956 23.344 83.448 25.948 87.116 25.948C89.244 25.948 90.952 25.08 91.988 23.652V22.14H86.892V18.864H95.768V24.324C94.928 25.808 93.724 27.04 92.156 27.964C90.616 28.888 88.88 29.336 86.948 29.336C81.516 29.448 76.98 25.052 77.064 19.76ZM111.534 20.404V29H107.782V20.936C107.782 19.34 106.746 18.248 105.206 18.248C103.666 18.248 102.574 19.34 102.574 20.936V29H98.794V8H102.574V16.316C103.498 15.392 104.842 14.832 106.382 14.832C109.518 14.832 111.534 17.044 111.534 20.404ZM126.793 20.768V29H123.321V27.656C122.313 28.692 120.857 29.336 119.093 29.336C116.153 29.336 114.305 27.628 114.305 25.192C114.305 22.7 116.321 21.16 119.541 21.16H123.013V20.544C123.013 19.004 122.117 18.108 120.437 18.108C119.009 18.108 118.001 18.696 116.769 20.012L114.809 17.688C116.405 15.784 118.421 14.832 120.857 14.832C124.469 14.832 126.793 16.932 126.793 20.768ZM123.013 23.82V23.652H120.045C118.813 23.652 118.113 24.128 118.113 25.052C118.113 25.976 118.897 26.564 120.101 26.564C121.753 26.564 123.013 25.416 123.013 23.82ZM138.943 15.14V18.472H137.935C135.667 18.472 134.211 19.704 134.211 22.084V29H130.431V15.14H133.903V16.792C134.827 15.644 136.171 14.972 137.711 14.972C138.187 14.972 138.579 15.028 138.943 15.14ZM94.984 36.184H96.216V55H92.436V45.144L87.788 50.968H86.556L81.908 45.144V55H78.128V36.184H79.36L87.172 46.18L94.984 36.184ZM111.699 46.768V55H108.227V53.656C107.219 54.692 105.763 55.336 103.999 55.336C101.059 55.336 99.2111 53.628 99.2111 51.192C99.2111 48.7 101.227 47.16 104.447 47.16H107.919V46.544C107.919 45.004 107.023 44.108 105.343 44.108C103.915 44.108 102.907 44.696 101.675 46.012L99.7151 43.688C101.311 41.784 103.327 40.832 105.763 40.832C109.375 40.832 111.699 42.932 111.699 46.768ZM107.919 49.82V49.652H104.951C103.719 49.652 103.019 50.128 103.019 51.052C103.019 51.976 103.803 52.564 105.007 52.564C106.659 52.564 107.919 51.416 107.919 49.82ZM128.077 46.404V55H124.325V46.908C124.325 45.312 123.289 44.22 121.749 44.22C120.209 44.22 119.117 45.312 119.117 46.908V55H115.337V41.14H118.809V42.4C119.789 41.42 121.217 40.832 122.869 40.832C126.089 40.832 128.077 43.044 128.077 46.404ZM141.796 34H145.576V55H142.104V53.292C141.18 54.608 139.556 55.336 137.652 55.336C133.788 55.336 130.932 52.256 130.932 48.084C130.932 43.912 133.788 40.832 137.652 40.832C139.416 40.832 140.788 41.392 141.796 42.484V34ZM141.852 48.084C141.852 45.62 140.256 44.248 138.352 44.248C136.336 44.248 134.768 45.788 134.768 48.056C134.768 50.38 136.308 51.892 138.352 51.892C140.256 51.892 141.852 50.576 141.852 48.084ZM149.325 55V41.14H153.105V55H149.325ZM148.793 36.1C148.793 34.756 149.857 33.748 151.201 33.748C152.545 33.748 153.637 34.756 153.637 36.1C153.637 37.416 152.545 38.424 151.201 38.424C149.857 38.424 148.793 37.416 148.793 36.1ZM165.357 41.14V44.472H164.349C162.081 44.472 160.625 45.704 160.625 48.084V55H156.845V41.14H160.317V42.792C161.241 41.644 162.585 40.972 164.125 40.972C164.601 40.972 164.993 41.028 165.357 41.14Z" fill="#AF1E2E"/>
</svg>
